<?xml version="1.0"?>
<svg xmlns="http://www.w3.org/2000/svg" id="Layer_1" data-name="Layer 1">
 <defs>
  <style>.cls-1{fill:#c28e0e;}.cls-2{fill:#ccc;}.cls-3{fill:#999;}</style>
 </defs>
 <title>PU_Logo_Coated_w_line_RGB</title>
 <path d="M6.8155,6.992h2.155c3.1075,0,4.7326,1.4126,4.7326,4.0269,0,2.8962-1.5538,4.2733-4.7677,4.2733H6.8155ZM0,4.9438V6.4982H.6004c1.8009,0,2.2955.7415,2.2955,2.6838V22.3556c0,1.9427-.4946,2.6842-2.2955,2.6842H0v1.554c1.6243-.0699,3.2139-.0699,4.8382-.0699s3.2493,0,4.874.0699v-1.554H9.1471c-1.8366,0-2.3316-.7063-2.3316-2.6842V17.1994H9.7122c5.2619,0,7.8054-1.8365,7.8054-6.1102,0-4.2382-2.7545-6.1454-8.4414-6.1454Z"/>
 <path d="M22.56,9.3302c1.2432,0,2.4583-.0284,3.6731-.0567v1.2436h-.4802c-1.5538,0-1.8367.5369-1.8367,2.1472v7.6563c0,3.2215.9888,4.6912,4.0115,4.6912,2.9673,0,3.9841-1.4697,3.9841-4.6345V12.7494c0-1.6674-.3103-2.2323-1.9491-2.2323h-.452V9.2735c1.2145.0283,2.3736.0567,3.5313.0567,1.1302,0,2.2603-.0284,3.3629-.0567v1.2436h-.5093c-1.2143,0-1.5538.6492-1.5538,2.1472v7.5432c0,4.6912-1.9208,6.7818-6.6963,6.7818-4.4923,0-6.8371-2.1753-6.8371-6.3855V12.6643c0-1.4693-.3112-2.1472-1.5544-2.1472h-.452V9.2735C20.073,9.3018,21.3166,9.3302,22.56,9.3302Z"/>
 <path d="M43.4401,10.9409H45.248c2.6562,0,3.8429.9608,3.8429,3.2491,0,2.2036-1.3846,3.0513-4.2382,3.0513H43.4401ZM37.9865,9.2735v1.2436h.4526c1.4408,0,1.8642.5928,1.8642,2.1472V23.2041c0,1.5816-.3953,2.1473-1.8642,2.1473h-.4526v1.2424c1.2999-.0559,2.5715-.0559,3.8707-.0559,1.2999,0,2.5998,0,3.9.0559V25.3514H45.277c-1.4416,0-1.8369-.5657-1.8369-2.1473V18.7386h1.5822c2.3452,0,2.8819.6783,3.5319,2.5428a47.341,47.341,0,0,0,1.4124,5.3124h4.6623V25.3514H54.346c-1.4405,0-1.9215-.8482-2.4009-2.7977-.6793-2.7129-.8483-4.2669-3.0238-4.6341a3.971,3.971,0,0,0,3.1644-4.0404c0-3.2774-2.204-4.6057-6.8377-4.6057Z"/>
 <path d="M61.071,10.9122h1.9767c4.7755,0,7.0358,2.0909,7.0358,6.7813,0,4.9449-2.2044,7.2332-6.8928,7.2332H61.071ZM55.6172,9.2735v1.2436h.4522c1.4414,0,1.864.5928,1.864,2.1472V23.2041c0,1.5532-.4226,2.1473-1.864,2.1473h-.4522v1.2424h8.2782c6.4142,0,9.5511-2.8819,9.5511-8.8723,0-5.7351-3.2775-8.448-10.0025-8.448Z"/>
 <path d="M77.8888,9.3302c1.2432,0,2.4584-.0284,3.6729-.0567v1.2436h-.4802c-1.5532,0-1.8361.5369-1.8361,2.1472v7.6563c0,3.2215.9884,4.6912,4.0125,4.6912,2.9658,0,3.9837-1.4697,3.9837-4.6345V12.7494c0-1.6674-.3116-2.2323-1.9495-2.2323h-.453V9.2735c1.216.0283,2.3738.0567,3.5331.0567,1.1297,0,2.2587-.0284,3.3613-.0567v1.2436h-.5073c-1.2161,0-1.5557.6492-1.5557,2.1472v7.5432c0,4.6912-1.9207,6.7818-6.6954,6.7818-4.4935,0-6.8377-2.1753-6.8377-6.3855V12.6643c0-1.4693-.3108-2.1472-1.554-2.1472h-.453V9.2735C75.4016,9.3018,76.6447,9.3302,77.8888,9.3302Z"/>
 <path d="M107.1594,9.3586v4.5206h-1.4398V13.427c0-2.204-.6223-2.373-2.8827-2.373H98.7414v5.8486h1.3278c2.1469,0,2.6263-.1419,2.6263-2.3171h1.2999v6.1593h-1.2703c-.0296-2.1185-.537-2.317-2.5999-2.317H98.7414v6.443h3.9837c2.655,0,3.108-.3396,3.1352-3.4472h1.4134v5.1702H93.1741V25.3514h.5936c1.4973,0,1.836-.5941,1.836-2.1473V12.6643c0-1.5544-.3659-2.1472-1.836-2.1472h-.4802V9.3586Z"/>
 <path class="cls-1" d="M2.0148,32.8582c.4155,0,.8305-.0084,1.2278-.018v.489H3.1318c-.507,0-.5996.18458-.5996.71949V36.5315c0,.88607.2856,1.30112,1.1537,1.30112.8391,0,1.1901-.42385,1.1901-1.31912V34.04865c0-.50775-.1201-.71949-.5905-.71949H4.1746v-.489c.3973.0096.7753.018,1.1536.018.3875,0,.7566-.0084,1.1261-.018v.489h-.138c-.3328,0-.4626.23052-.4626.71949V36.4296c0,1.5133-.636,2.1972-2.2603,2.1972-1.5233,0-2.2707-.656-2.2707-1.96509V34.04865c0-.47977-.0829-.71949-.452-.71949H.7602v-.489C1.1839,32.8498,1.6089,32.8582,2.0148,32.8582Z"/>
 <path class="cls-1" d="M15.1942,32.8402l2.1686,4.63247-.0278-3.424c0-.50775-.1102-.71949-.5904-.71949h-.1104v-.489c.3967.0096.7838.018,1.1813.018.4058,0,.8031-.0084,1.2088-.018v.489h-.1105c-.4713,0-.5906.21174-.5906.71949V38.497H16.754l-2.1692-4.61374.0188,3.39648c0,.50735.111.72788.5906.72788h.111V38.497c-.3973-.018-.7939-.018-1.1908-.018-.3967,0-.7938,0-1.1993.018v-.48938h.1105c.4706,0,.5994-.22053.5994-.72788V34.04865c0-.50775-.1288-.71949-.5994-.71949h-.1105v-.489Z"/>
 <path class="cls-1" d="M26.9148,32.8582c.4335,0,.8773-.0084,1.32-.018v.489h-.1199c-.4708,0-.5906.21174-.5906.71949v3.23109c0,.50735.1198.72788.5906.72788h.1199V38.497c-.4427-.018-.8865-.018-1.32-.018-.4426,0-.8858,0-1.3289.018v-.48938h.1105c.4714,0,.5906-.22053.5906-.72788V34.04865c0-.50775-.1192-.71949-.5906-.71949h-.1105v-.489C26.029,32.8498,26.4722,32.8582,26.9148,32.8582Z"/>
 <path class="cls-1" d="M35.6087,32.8582c.3967,0,.8585-.0084,1.3663-.018v.489c-.4706.01919-.6654.04634-.6654.30444a.802.802,0,0,0,.0554.24966l1.246,3.60782,1.1911-3.58942a.85022.85022,0,0,0,.0371-.24049c0-.24009-.2127-.332-.6652-.332v-.489c.4431.0096.8496.018,1.2371.018.3791,0,.7383-.0084,1.0702-.018v.489c-.3319.06472-.4704.23972-.5906.59l-1.6615,4.67085H36.8921l-1.7172-4.63329c-.147-.40626-.2769-.59963-.5906-.62761v-.489C34.8705,32.8498,35.212,32.8582,35.6087,32.8582Z"/>
 <path class="cls-1" d="M51.4179,32.8582V34.419h-.5261v-.25007c0-.53531-.3044-.64556-.9873-.64556h-1.135v1.76214h.3228c.6094,0,.766-.11065.7758-.73826h.4982v2.049h-.4982c-.0277-.60883-.1664-.7199-.7382-.7199h-.3604v1.9563h1.0339c.9228,0,1.1258-.11982,1.1436-1.107h.5175V38.497H46.8314v-.48938h.1111c.4983,0,.5906-.23972.5906-.72788V34.04865c0-.50775-.1198-.71949-.5906-.71949h-.1111v-.471Z"/>
 <path class="cls-1" d="M60.0771,33.52335h.4706c.775,0,1.125.25764,1.125.95916,0,.67392-.3692.91405-1.1721.91405h-.4235ZM58.138,32.8402v.489h.111c.4698,0,.5897.21174.5897.71949v3.23109c0,.50735-.1199.72788-.5897.72788h-.111V38.497c.4434-.018.8869-.018,1.3287-.018.4346,0,.8781,0,1.3215.018v-.48938h-.1206c-.4706,0-.5905-.22053-.5905-.72788V35.99618h.4427c.5065,0,.7933.14739.922.51732a17.28225,17.28225,0,0,0,.5449,1.9835h1.6986v-.48938H63.639a.71851.71851,0,0,1-.5913-.23972,3.72056,3.72056,0,0,1-.3779-1.18129c-.1566-.58085-.286-.84851-.8126-.9228a1.22546,1.22546,0,0,0,.9979-1.3c0-1.11776-.7582-1.52364-2.3729-1.52364Z"/>
 <path class="cls-1" d="M74.2518,34.52964h-.7111a1.17407,1.17407,0,0,0,.0104-.18576c0-.70071-.3507-1.01472-1.1162-1.01472-.6655,0-1.0802.34117-1.0802.83014,0,.3975.2213.61881.7103.81337l1.1713.4702a1.58892,1.58892,0,0,1,1.2001,1.49488c0,1.06987-.8022,1.68905-2.2971,1.68905a9.19385,9.19385,0,0,1-2.0318-.24087V36.78955h.6751c0,.04716-.0096.09311-.0096.12984,0,.72869.4427,1.09862,1.3016,1.09862.6927,0,1.069-.30521,1.069-.85894,0-.39746-.1925-.59963-.6456-.79337l-1.0786-.46221c-.8956-.38789-1.339-.80216-1.339-1.53965,0-1.01549.7933-1.65384,2.2443-1.65384a8.3192,8.3192,0,0,1,1.9271.2593Z"/>
 <path class="cls-1" d="M82.4294,32.8582c.4338,0,.8764-.0084,1.3199-.018v.489h-.1199c-.4714,0-.5912.21174-.5912.71949v3.23109c0,.50735.1198.72788.5912.72788h.1199V38.497c-.4435-.018-.8861-.018-1.3199-.018-.4427,0-.8853,0-1.3295.018v-.48938h.1118c.4698,0,.5905-.22053.5905-.72788V34.04865c0-.50775-.1207-.71949-.5905-.71949h-.1118v-.489C81.5441,32.8498,81.9867,32.8582,82.4294,32.8582Z"/>
 <path class="cls-1" d="M91.982,32.8582h1.5596c.1925,0,.7838-.018,1.7713-.018v1.707h-.6096V34.399c0-.72869-.2029-.87567-.8853-.87567h-.4066v3.75639c0,.50735.1198.72788.5912.72788h.1942V38.497c-.4706-.018-.9421-.018-1.4039-.018-.4698,0-.9404,0-1.4117.018v-.48938h.1941c.4714,0,.5897-.22053.5897-.72788V33.52335h-.4978c-.6184,0-.8302.16576-.8302.78457a2.16063,2.16063,0,0,0,.0096.23931H90.265v-1.707C91.2242,32.8402,91.7974,32.8582,91.982,32.8582Z"/>
 <path class="cls-1" d="M102.7514,32.8582c.3971,0,.8126-.0084,1.2281-.018v.489h-.0472c-.294,0-.4242.08312-.4242.26729a.8056.8056,0,0,0,.111.33238l.7199,1.45893.7191-1.41263a.85828.85828,0,0,0,.1023-.35033c0-.21252-.1391-.29564-.4523-.29564v-.489c.3971.0096.7759.018,1.153.018.3707,0,.739-.0084,1.0993-.018v.489h-.0375c-.2956,0-.4706.21174-.7183.61722l-1.3766,2.25234v1.14533c0,.48857.0927.66357.628.66357h.1286V38.497c-.4338-.018-.8765-.018-1.3295-.018-.4426,0-.8941,0-1.3462.018v-.48938h.1294c.5257,0,.6264-.175.6264-.66357V36.18113l-1.2912-2.24273c-.2205-.37872-.4067-.59-.7838-.60924v-.489C101.9668,32.8498,102.3551,32.8582,102.7514,32.8582Z"/>
 <rect class="cls-1" x="0.1404" y="28.912" width="107.162" height="1.0171"/>
 <path class="cls-2" d="M112.3987,38.24848a1.34923,1.34923,0,1,1,.3943-.956A1.29825,1.29825,0,0,1,112.3987,38.24848Zm-1.7725-1.77412a1.11855,1.11855,0,0,0-.3376.81975,1.134,1.134,0,0,0,.3356.82576,1.1555,1.1555,0,0,0,1.6403,0,1.17135,1.17135,0,0,0,0-1.64551,1.15309,1.15309,0,0,0-1.6383,0Zm.7926.0751a1.13555,1.13555,0,0,1,.4035.05314.36684.36684,0,0,1,.2293.37472.323.323,0,0,1-.1443.292.55707.55707,0,0,1-.2137.07191.35639.35639,0,0,1,.2537.14461.40617.40617,0,0,1,.0807.22888V37.823c0,.034.0012.07069.0036.10984a.24216.24216,0,0,0,.0128.07711l.0091.01837h-.244l-.0036-.01477-.0036-.01636-.0056-.04754v-.11707a.36168.36168,0,0,0-.1394-.33835.63.63,0,0,0-.2901-.04754h-.2053v.58163h-.2608v-1.4789Zm.2812.23289a.685.685,0,0,0-.3156-.05469h-.2225v.53568h.2353a.7075.7075,0,0,0,.2485-.03313.266.266,0,0,0,.0543-.44786Z"/>
 <rect class="cls-3" x="124.7678" width="0.6856" height="43.2002"/>
 <g transform="scale(0.015) translate(9300, 1340)" fill="#000000">
  <path transform="translate(0,0) rotate(180) scale(-1, 1)" d="M478 179c0 -107 -61 -196 -211 -196c-149 0 -215 100 -215 208v284c0 108 66 207 215 207c150 0 211 -88 211 -195v-54h-96v47c0 68 -37 110 -112 110s-112 -44 -112 -105v-305c0 -60 37 -104 112 -104s112 42 112 110v47h96v-54z"/>
  <path transform="translate(503,0) rotate(180) scale(-1, 1)" d="M385 164c0 -107 -64 -172 -169 -172c-106 0 -170 65 -170 172v140c0 106 64 173 170 173c105 0 169 -67 169 -173v-140zM292 148v173c0 47 -27 80 -76 80c-50 0 -77 -33 -77 -80v-173c0 -48 27 -80 77 -80c49 0 76 32 76 80z"/>
  <path transform="translate(925,0) rotate(180) scale(-1, 1)" d="M151 0h-96v666h96v-666z"/>
  <path transform="translate(1121,0) rotate(180) scale(-1, 1)" d="M151 0h-96v666h96v-666z"/>
  <path transform="translate(1317,0) rotate(180) scale(-1, 1)" d="M376 161c0 -106 -55 -169 -161 -169s-169 65 -169 172v140c0 106 63 173 169 173s161 -67 161 -173v-72h-238v-84c0 -48 27 -80 77 -80s77 32 77 80v19h84v-6zM292 281v40c0 47 -27 80 -77 80s-77 -33 -77 -80v-40h154z"/>
  <path transform="translate(1722,0) rotate(180) scale(-1, 1)" d="M424 480c0 -45 -28 -62 -52 -62c-12 0 -26 -1 -40 8c33 -27 49 -62 49 -98v-9c0 -86 -65 -146 -165 -146c-10 0 -41 4 -49 6c-27 0 -46 -23 -46 -39c0 -24 25 -41 122 -41c118 0 169 -45 169 -110v-10c0 -77 -72 -146 -189 -146c-106 0 -193 47 -193 117v6 c0 42 27 72 90 86c-53 12 -78 43 -78 75c0 35 36 72 80 79c-45 24 -70 70 -70 126v3c0 85 73 152 164 152c45 0 68 -13 78 -13c48 0 61 26 61 59h65c4 -23 4 -33 4 -43zM295 322v4c0 44 -30 82 -79 82s-79 -38 -79 -82v-4c0 -44 30 -82 79 -82s79 38 79 82zM325 -29v6 c0 31 -20 51 -103 51c-75 0 -108 -23 -108 -54v-6c0 -31 33 -60 108 -60s103 32 103 63z"/>
  <path transform="translate(2140,0) rotate(180) scale(-1, 1)" d="M376 161c0 -106 -55 -169 -161 -169s-169 65 -169 172v140c0 106 63 173 169 173s161 -67 161 -173v-72h-238v-84c0 -48 27 -80 77 -80s77 32 77 80v19h84v-6zM292 281v40c0 47 -27 80 -77 80s-77 -33 -77 -80v-40h154z"/>
  <path transform="translate(2545,0) rotate(180) scale(-1, 1)" d=""/>
  <path transform="translate(2723,0) rotate(180) scale(-1, 1)" d="M385 164c0 -107 -64 -172 -169 -172c-106 0 -170 65 -170 172v140c0 106 64 173 170 173c105 0 169 -67 169 -173v-140zM292 148v173c0 47 -27 80 -76 80c-50 0 -77 -33 -77 -80v-173c0 -48 27 -80 77 -80c49 0 76 32 76 80z"/>
  <path transform="translate(3145,0) rotate(180) scale(-1, 1)" d="M258 391h-76v-391h-96v391h-63v77h63v33c0 100 47 165 139 165h42v-77h-27c-47 0 -63 -29 -63 -75v-46h81v-77z"/>
  <path transform="translate(3407,0) rotate(180) scale(-1, 1)" d=""/>
  <path transform="translate(3585,0) rotate(180) scale(-1, 1)" d="M473 0h-107l-43 172h-171l-41 -172h-104l176 666h112zM301 260l-65 262l-63 -262h128z"/>
  <path transform="translate(4055,0) rotate(180) scale(-1, 1)" d="M424 480c0 -45 -28 -62 -52 -62c-12 0 -26 -1 -40 8c33 -27 49 -62 49 -98v-9c0 -86 -65 -146 -165 -146c-10 0 -41 4 -49 6c-27 0 -46 -23 -46 -39c0 -24 25 -41 122 -41c118 0 169 -45 169 -110v-10c0 -77 -72 -146 -189 -146c-106 0 -193 47 -193 117v6 c0 42 27 72 90 86c-53 12 -78 43 -78 75c0 35 36 72 80 79c-45 24 -70 70 -70 126v3c0 85 73 152 164 152c45 0 68 -13 78 -13c48 0 61 26 61 59h65c4 -23 4 -33 4 -43zM295 322v4c0 44 -30 82 -79 82s-79 -38 -79 -82v-4c0 -44 30 -82 79 -82s79 38 79 82zM325 -29v6 c0 31 -20 51 -103 51c-75 0 -108 -23 -108 -54v-6c0 -31 33 -60 108 -60s103 32 103 63z"/>
  <path transform="translate(4473,0) rotate(180) scale(-1, 1)" d="M289 379c-102 15 -138 -15 -138 -60v-319h-96v468h78l8 -95c28 91 76 113 148 98v-92z"/>
  <path transform="translate(4765,0) rotate(180) scale(-1, 1)" d="M148 549h-90v95h90v-95zM151 0h-96v468h96v-468z"/>
  <path transform="translate(4961,0) rotate(180) scale(-1, 1)" d="M376 161c0 -106 -55 -169 -161 -169s-169 65 -169 172v140c0 106 63 173 169 173s161 -64 161 -170v-5h-84v19c0 47 -27 80 -77 80s-77 -31 -77 -86v-161c0 -56 27 -86 77 -86s77 32 77 80v19h84v-6z"/>
  <path transform="translate(5365,0) rotate(180) scale(-1, 1)" d="M403 0h-78l-7 93c-27 -71 -73 -101 -130 -101c-89 0 -133 59 -133 146v330h96v-329c0 -47 26 -75 66 -75c58 0 90 87 90 122v282h96v-468z"/>
  <path transform="translate(5813,0) rotate(180) scale(-1, 1)" d="M151 0h-96v666h96v-666z"/>
  <path transform="translate(6009,0) rotate(180) scale(-1, 1)" d="M256 391h-76v-237c0 -62 7 -110 32 -154h-101c-21 40 -27 83 -27 154v237h-63v77h68v88l91 29v-117h76v-77z"/>
  <path transform="translate(6278,0) rotate(180) scale(-1, 1)" d="M403 0h-78l-7 93c-27 -71 -73 -101 -130 -101c-89 0 -133 59 -133 146v330h96v-329c0 -47 26 -75 66 -75c58 0 90 87 90 122v282h96v-468z"/>
  <path transform="translate(6726,0) rotate(180) scale(-1, 1)" d="M289 379c-102 15 -138 -15 -138 -60v-319h-96v468h78l8 -95c28 91 76 113 148 98v-92z"/>
  <path transform="translate(7018,0) rotate(180) scale(-1, 1)" d="M376 161c0 -106 -55 -169 -161 -169s-169 65 -169 172v140c0 106 63 173 169 173s161 -67 161 -173v-72h-238v-84c0 -48 27 -80 77 -80s77 32 77 80v19h84v-6zM292 281v40c0 47 -27 80 -77 80s-77 -33 -77 -80v-40h154z"/>
 </g>
 <g transform="scale(0.015) translate(9300, 2240)" fill="#000000">
  <path transform="translate(0,0) rotate(180) scale(-1, 1)" d="M486 196c0 -108 -64 -196 -206 -196h-218v666h218c142 0 206 -88 206 -196v-274zM380 206v253c0 70 -34 112 -109 112h-103v-476h103c75 0 109 42 109 111z"/>
  <path transform="translate(528,0) rotate(180) scale(-1, 1)" d="M376 161c0 -106 -55 -169 -161 -169s-169 65 -169 172v140c0 106 63 173 169 173s161 -67 161 -173v-72h-238v-84c0 -48 27 -80 77 -80s77 32 77 80v19h84v-6zM292 281v40c0 47 -27 80 -77 80s-77 -33 -77 -80v-40h154z"/>
  <path transform="translate(933,0) rotate(180) scale(-1, 1)" d="M399 137c0 -85 -56 -146 -124 -146c-58 0 -91 15 -125 57v-206h-95v626h68l6 -72c24 60 79 80 128 80c85 0 142 -60 142 -156v-183zM306 166v142c0 67 -27 97 -77 97c-40 0 -79 -30 -79 -92v-153c0 -57 30 -91 79 -91c50 0 77 29 77 97z"/>
  <path transform="translate(1369,0) rotate(180) scale(-1, 1)" d="M404 -8h-30c-38 0 -70 16 -69 65c-32 -41 -82 -65 -137 -65c-80 0 -134 48 -134 126v6c0 120 124 145 247 153v59c0 40 -22 63 -68 63c-54 0 -67 -21 -67 -68v-14h-92v17c0 78 49 143 158 143c121 0 159 -71 159 -163v-224c0 -18 10 -27 33 -27v-71zM281 142v77 c-107 -8 -157 -33 -157 -92v-3c0 -31 21 -58 61 -58c47 0 96 30 96 76z"/>
  <path transform="translate(1790,0) rotate(180) scale(-1, 1)" d="M289 379c-102 15 -138 -15 -138 -60v-319h-96v468h78l8 -95c28 91 76 113 148 98v-92z"/>
  <path transform="translate(2082,0) rotate(180) scale(-1, 1)" d="M256 391h-76v-237c0 -62 7 -110 32 -154h-101c-21 40 -27 83 -27 154v237h-63v77h68v88l91 29v-117h76v-77z"/>
  <path transform="translate(2351,0) rotate(180) scale(-1, 1)" d="M584 0h-95v341c0 38 -16 63 -50 63c-59 0 -71 -87 -71 -122v-282h-96v341c0 38 -15 63 -49 63c-59 0 -72 -87 -72 -122v-282h-96v468h79l6 -91c28 74 72 99 122 99c53 0 85 -32 100 -85c28 63 63 85 116 85c68 0 106 -50 106 -134v-342z"/>
  <path transform="translate(2978,0) rotate(180) scale(-1, 1)" d="M376 161c0 -106 -55 -169 -161 -169s-169 65 -169 172v140c0 106 63 173 169 173s161 -67 161 -173v-72h-238v-84c0 -48 27 -80 77 -80s77 32 77 80v19h84v-6zM292 281v40c0 47 -27 80 -77 80s-77 -33 -77 -80v-40h154z"/>
  <path transform="translate(3383,0) rotate(180) scale(-1, 1)" d="M403 0h-96v329c0 47 -26 75 -66 75c-59 0 -90 -87 -90 -122v-282h-96v468h78l7 -108c31 82 73 116 130 116c88 0 133 -59 133 -146v-330z"/>
  <path transform="translate(3829,0) rotate(180) scale(-1, 1)" d="M256 391h-76v-237c0 -62 7 -110 32 -154h-101c-21 40 -27 83 -27 154v237h-63v77h68v88l91 29v-117h76v-77z"/>
  <path transform="translate(4098,0) rotate(180) scale(-1, 1)" d=""/>
  <path transform="translate(4276,0) rotate(180) scale(-1, 1)" d="M385 164c0 -107 -64 -172 -169 -172c-106 0 -170 65 -170 172v140c0 106 64 173 170 173c105 0 169 -67 169 -173v-140zM292 148v173c0 47 -27 80 -76 80c-50 0 -77 -33 -77 -80v-173c0 -48 27 -80 77 -80c49 0 76 32 76 80z"/>
  <path transform="translate(4698,0) rotate(180) scale(-1, 1)" d="M258 391h-76v-391h-96v391h-63v77h63v33c0 100 47 165 139 165h42v-77h-27c-47 0 -63 -29 -63 -75v-46h81v-77z"/>
  <path transform="translate(4960,0) rotate(180) scale(-1, 1)" d=""/>
  <path transform="translate(5138,0) rotate(180) scale(-1, 1)" d="M422 0h-360v666h360v-95h-254v-175h183v-90h-183v-211h254v-95z"/>
  <path transform="translate(5583,0) rotate(180) scale(-1, 1)" d="M403 0h-96v329c0 47 -26 75 -66 75c-59 0 -90 -87 -90 -122v-282h-96v468h78l7 -108c31 82 73 116 130 116c88 0 133 -59 133 -146v-330z"/>
  <path transform="translate(6029,0) rotate(180) scale(-1, 1)" d="M256 391h-76v-237c0 -62 7 -110 32 -154h-101c-21 40 -27 83 -27 154v237h-63v77h68v88l91 29v-117h76v-77z"/>
  <path transform="translate(6298,0) rotate(180) scale(-1, 1)" d="M385 164c0 -107 -64 -172 -169 -172c-106 0 -170 65 -170 172v140c0 106 64 173 170 173c105 0 169 -67 169 -173v-140zM292 148v173c0 47 -27 80 -76 80c-50 0 -77 -33 -77 -80v-173c0 -48 27 -80 77 -80c49 0 76 32 76 80z"/>
  <path transform="translate(6720,0) rotate(180) scale(-1, 1)" d="M584 0h-95v341c0 38 -16 63 -50 63c-59 0 -71 -87 -71 -122v-282h-96v341c0 38 -15 63 -49 63c-59 0 -72 -87 -72 -122v-282h-96v468h79l6 -91c28 74 72 99 122 99c53 0 85 -32 100 -85c28 63 63 85 116 85c68 0 106 -50 106 -134v-342z"/>
  <path transform="translate(7347,0) rotate(180) scale(-1, 1)" d="M385 164c0 -107 -64 -172 -169 -172c-106 0 -170 65 -170 172v140c0 106 64 173 170 173c105 0 169 -67 169 -173v-140zM292 148v173c0 47 -27 80 -76 80c-50 0 -77 -33 -77 -80v-173c0 -48 27 -80 77 -80c49 0 76 32 76 80z"/>
  <path transform="translate(7769,0) rotate(180) scale(-1, 1)" d="M151 0h-96v666h96v-666z"/>
  <path transform="translate(7965,0) rotate(180) scale(-1, 1)" d="M385 164c0 -107 -64 -172 -169 -172c-106 0 -170 65 -170 172v140c0 106 64 173 170 173c105 0 169 -67 169 -173v-140zM292 148v173c0 47 -27 80 -76 80c-50 0 -77 -33 -77 -80v-173c0 -48 27 -80 77 -80c49 0 76 32 76 80z"/>
  <path transform="translate(8387,0) rotate(180) scale(-1, 1)" d="M424 480c0 -45 -28 -62 -52 -62c-12 0 -26 -1 -40 8c33 -27 49 -62 49 -98v-9c0 -86 -65 -146 -165 -146c-10 0 -41 4 -49 6c-27 0 -46 -23 -46 -39c0 -24 25 -41 122 -41c118 0 169 -45 169 -110v-10c0 -77 -72 -146 -189 -146c-106 0 -193 47 -193 117v6 c0 42 27 72 90 86c-53 12 -78 43 -78 75c0 35 36 72 80 79c-45 24 -70 70 -70 126v3c0 85 73 152 164 152c45 0 68 -13 78 -13c48 0 61 26 61 59h65c4 -23 4 -33 4 -43zM295 322v4c0 44 -30 82 -79 82s-79 -38 -79 -82v-4c0 -44 30 -82 79 -82s79 38 79 82zM325 -29v6 c0 31 -20 51 -103 51c-75 0 -108 -23 -108 -54v-6c0 -31 33 -60 108 -60s103 32 103 63z"/>
  <path transform="translate(8805,0) rotate(180) scale(-1, 1)" d="M383 468l-149 -491c-25 -83 -48 -138 -143 -138h-40v71h30c49 0 58 14 68 46l7 25l-148 487h95l68 -258l25 -106l25 106l67 258h95z"/>
 </g>
</svg>
